#!OML:ASF X:\für Bonn\!DataBase\2005_08_10_Bjorn_Final\c3d\bjorn.ASF
:FULLY-SPECIFIED
:DEGREES
282
root 6.25185 19.0857 0.474596 653.524 94.2333 655.998
lowerback 3.89118 -0.456864 10.1229
upperback 14.1196 -0.192527 1.38731
thorax 13.3081 1.36146 -4.00154
lowerneck 5.72287 6.75662 5.38816
upperneck -4.67947 8.99919 -10.1467
head -1.76631 4.72465 -4.58757
rclavicle -1.03368e-014 0
rhumerus -26.5681 -26.4421 -73.9651
rradius 34.0178
rwrist 8.47615
rhand -8.84752 14.3018
rfingers 7.12502
rthumb 17.0932 -14.9662
lclavicle -1.03368e-014 0
lhumerus -23.9006 -17.0767 90.7602
lradius 19.512
lwrist -22.753
lhand -6.48258 -7.34161
lfingers 7.12502
lthumb 19.3684 21.7138
rfemur -16.7312 -7.6021 12.5996
rtibia 35.8225
rfoot -10.7724 17.1676
rtoes -8.17925
lfemur -18.1417 3.71657 -12.4925
ltibia 84.1766
lfoot -1.54354 -3.66665
ltoes -27.8093
283
root 6.2956 19.0934 0.493547 654.449 94.2452 657.034
lowerback 4.0618 -0.394503 10.4388
upperback 14.1575 -0.0913658 1.44342
thorax 13.2817 1.44826 -4.10415
lowerneck 5.61354 6.71071 5.21717
upperneck -4.64191 8.92585 -10.1456
head -1.74783 4.68946 -4.54667
rclavicle 1.66979e-014 5.725e-014
rhumerus -26.4453 -26.5023 -73.7642
rradius 33.9667
rwrist 8.53259
rhand -8.93586 14.3718
rfingers 7.12502
rthumb 17.0082 -14.9036
lclavicle 1.66979e-014 5.725e-014
lhumerus -24.1689 -16.656 90.9213
lradius 19.6148
lwrist -22.855
lhand -6.37661 -7.62068
lfingers 7.12502
lthumb 19.4703 21.4245
rfemur -16.3223 -7.90528 12.6201
rtibia 35.6001
rfoot -10.8137 17.4492
rtoes -8.46295
lfemur -19.5517 4.20756 -12.4556
ltibia 85.7893
lfoot -1.90255 -4.11835
ltoes -28.123
284
root 6.339 19.1004 0.512227 655.217 94.2539 657.891
lowerback 4.20758 -0.342392 10.7146
upperback 14.1791 -0.00773876 1.51285
thorax 13.2467 1.51872 -4.17188
lowerneck 5.55367 6.68132 5.04179
upperneck -4.62496 8.87363 -10.194
head -1.74134 4.66796 -4.5264
rclavicle -3.18055e-015 1.59028e-015
rhumerus -26.3161 -26.4409 -73.5747
rradius 33.9339
rwrist 8.47763
rhand -9.01813 14.3722
rfingers 7.12502
rthumb 16.929 -14.9099
lclavicle -3.18055e-015 1.59028e-015
lhumerus -24.4973 -16.3523 91.1152
lradius 19.7557
lwrist -22.7919
lhand -6.30751 -7.92893
lfingers 7.12502
lthumb 19.5367 21.1095
rfemur -15.95 -8.1709 12.6398
rtibia 35.4027
rfoot -10.9001 17.6802
rtoes -8.79733
lfemur -20.9734 4.69389 -12.4134
ltibia 87.3244
lfoot -2.15487 -4.63206
ltoes -27.907
285
root 6.38133 19.1051 0.52926 656.251 94.2492 659.016
lowerback 4.35977 -0.283459 11.0554
upperback 14.1911 0.0874725 1.5529
thorax 13.2032 1.60362 -4.30773
lowerneck 5.47457 6.64028 4.96735
upperneck -4.58033 8.81414 -10.2428
head -1.71832 4.63979 -4.52298
rclavicle 1.82882e-014 5.24792e-014
rhumerus -26.2169 -26.4586 -73.4203
rradius 33.9249
rwrist 8.48212
rhand -9.0844 14.3608
rfingers 7.12502
rthumb 16.8652 -14.9269
lclavicle 1.82882e-014 5.24792e-014
lhumerus -24.8152 -16.0954 91.2505
lradius 19.8814
lwrist -22.7687
lhand -6.28889 -8.15254
lfingers 7.12502
lthumb 19.5546 20.8841
rfemur -15.5977 -8.43958 12.6757
rtibia 35.2365
rfoot -11.0485 17.8802
rtoes -9.36369
lfemur -22.3611 5.14312 -12.3531
ltibia 88.7677
lfoot -2.34683 -5.16837
ltoes -27.1976
286
root 6.42396 19.1092 0.545481 657.189 94.268 660.032
lowerback 4.48863 -0.22737 11.358
upperback 14.1945 0.176221 1.59855
thorax 13.1615 1.67948 -4.41717
lowerneck 5.43609 6.59139 4.9225
upperneck -4.53115 8.7465 -10.3334
head -1.69892 4.60912 -4.54212
rclavicle 7.95139e-016 7.95139e-015
rhumerus -26.1228 -26.4776 -73.2504
rradius 33.8896
rwrist 8.51378
rhand -9.18003 14.4025
rfingers 7.12502
rthumb 16.7731 -14.8929
lclavicle 7.95139e-016 7.95139e-015
lhumerus -25.1476 -15.9265 91.4055
lradius 19.9851
lwrist -22.6201
lhand -6.28945 -8.43527
lfingers 7.12502
lthumb 19.5541 20.6014
rfemur -15.2702 -8.73129 12.6867
rtibia 35.089
rfoot -11.2044 18.0939
rtoes -9.94155
lfemur -23.7463 5.60776 -12.3426
ltibia 90.1239
lfoot -2.6172 -5.64594
ltoes -26.8155
287
root 6.46661 19.1124 0.561526 657.92 94.2809 660.849
lowerback 4.62855 -0.167164 11.6738
upperback 14.2006 0.274843 1.61861
thorax 13.121 1.76384 -4.56187
lowerneck 5.38825 6.54948 4.90406
upperneck -4.4887 8.69064 -10.3694
head -1.68023 4.5816 -4.54671
rclavicle 1.51076e-014 -7.95139e-015
rhumerus -26.0119 -26.568 -73.128
rradius 33.8483
rwrist 8.53439
rhand -9.2322 14.4442
rfingers 7.12502
rthumb 16.7229 -14.8555
lclavicle 1.51076e-014 -7.95139e-015
lhumerus -25.4245 -15.6829 91.4672
lradius 20.0291
lwrist -22.59
lhand -6.38899 -8.69243
lfingers 7.12502
lthumb 19.4584 20.3539
rfemur -14.9458 -8.95061 12.6963
rtibia 34.961
rfoot -11.3655 18.2723
rtoes -10.4203
lfemur -25.0642 6.06193 -12.3379
ltibia 91.3761
lfoot -2.92977 -6.06656
ltoes -25.9195
288
root 6.5072 19.1162 0.577393 658.951 94.3057 661.945
lowerback 4.76264 -0.113063 11.9896
upperback 14.1885 0.365263 1.62963
thorax 13.0618 1.84226 -4.71829
lowerneck 5.37135 6.49857 4.99133
upperneck -4.45008 8.62818 -10.4999
head -1.66058 4.55262 -4.60685
rclavicle -3.10104e-014 -3.18055e-014
rhumerus -25.8664 -26.6573 -73.0283
rradius 33.7125
rwrist 8.61774
rhand -9.34841 14.507
rfingers 7.12502
rthumb 16.611 -14.8021
lclavicle -3.10104e-014 -3.18055e-014
lhumerus -25.687 -15.5188 91.509
lradius 20.0233
lwrist -22.4991
lhand -6.53738 -8.88282
lfingers 7.12502
lthumb 19.3157 20.1779
rfemur -14.6507 -9.20441 12.7149
rtibia 34.8371
rfoot -11.5363 18.487
rtoes -11.0016
lfemur -26.4095 6.52231 -12.3426
ltibia 92.5392
lfoot -3.23649 -6.44831
ltoes -25.5142
289
root 6.54766 19.1189 0.592703 660.072 94.3358 663.142
lowerback 4.88663 -0.064731 12.2818
upperback 14.1809 0.446498 1.66184
thorax 13.0118 1.91258 -4.8385
lowerneck 5.37446 6.45822 5.01581
upperneck -4.41293 8.57672 -10.6056
head -1.64794 4.53004 -4.64771
rclavicle -7.95139e-015 -3.33958e-014
rhumerus -25.7269 -26.7475 -72.8976
rradius 33.5945
rwrist 8.70594
rhand -9.43208 14.5907
rfingers 7.12502
rthumb 16.5305 -14.7252
lclavicle -7.95139e-015 -3.33958e-014
lhumerus -25.9175 -15.2032 91.5306
lradius 19.9831
lwrist -22.5064
lhand -6.79136 -9.08417
lfingers 7.12502
lthumb 19.0715 20.0008
rfemur -14.337 -9.41813 12.7319
rtibia 34.7111
rfoot -11.7162 18.6818
rtoes -11.4052
lfemur -27.6996 6.93178 -12.3675
ltibia 93.6009
lfoot -3.57886 -6.69762
ltoes -25.3009
290
root 6.5864 19.1234 0.60727 661.018 94.4137 664.173
lowerback 5.05036 -0.0222784 12.5666
upperback 14.1659 0.530666 1.64911
thorax 12.9307 1.98476 -5.00612
lowerneck 5.4003 6.41631 5.11374
upperneck -4.58858 8.4974 -11.0599
head -1.5266 4.51827 -4.3446
rclavicle 3.97569e-015 -1.59028e-015
rhumerus -25.5522 -26.8639 -72.8205
rradius 33.41
rwrist 8.80412
rhand -9.54777 14.7101
rfingers 7.12502
rthumb 16.4191 -14.615
lclavicle 3.97569e-015 -1.59028e-015
lhumerus -26.1234 -14.8195 91.4591
lradius 19.9257
lwrist -22.5977
lhand -7.03301 -9.29183
lfingers 7.12502
lthumb 18.8391 19.8159
rfemur -14.004 -9.61924 12.6932
rtibia 34.5625
rfoot -11.8448 18.8695
rtoes -11.6979
lfemur -28.9728 7.29622 -12.4661
ltibia 94.5565
lfoot -3.89708 -6.8006
ltoes -25.0159
291
root 6.62419 19.1277 0.620723 662.281 94.5067 665.522
lowerback 5.20564 0.00856697 12.837
upperback 14.1506 0.597687 1.66195
thorax 12.8503 2.04494 -5.13848
lowerneck 5.42517 6.36445 5.22833
upperneck -4.56033 8.4348 -11.2364
head -1.51478 4.49161 -4.41544
rclavicle 7.95139e-016 1.11319e-014
rhumerus -25.3836 -27.0072 -72.7055
rradius 33.254
rwrist 8.96024
rhand -9.65534 14.8168
rfingers 7.12502
rthumb 16.3155 -14.5168
lclavicle 7.95139e-016 1.11319e-014
lhumerus -26.3123 -14.4594 91.4206
lradius 19.8538
lwrist -22.7312
lhand -7.35562 -9.44729
lfingers 7.12502
lthumb 18.5288 19.6903
rfemur -13.6619 -9.81611 12.6611
rtibia 34.3993
rfoot -11.9765 19.0124
rtoes -11.9036
lfemur -30.2066 7.61397 -12.5709
ltibia 95.4042
lfoot -4.2514 -6.78227
ltoes -24.9362
292
root 6.66151 19.1339 0.633871 663.468 94.6017 666.806
lowerback 5.36551 0.0397306 13.1239
upperback 14.1443 0.668559 1.65452
thorax 12.7822 2.11179 -5.30206
lowerneck 5.47427 6.30903 5.41601
upperneck -4.56842 8.37014 -11.4215
head -1.51442 4.46405 -4.50256
rclavicle -8.74653e-015 -1.90833e-014
rhumerus -25.1813 -27.1715 -72.6448
rradius 33.0613
rwrist 9.1044
rhand -9.78854 14.9932
rfingers 7.12502
rthumb 16.1873 -14.351
lclavicle -8.74653e-015 -1.90833e-014
lhumerus -26.4705 -14.0472 91.3105
lradius 19.7834
lwrist -22.8384
lhand -7.65727 -9.58782
lfingers 7.12502
lthumb 18.2386 19.5771
rfemur -13.2887 -9.99289 12.6206
rtibia 34.223
rfoot -12.0939 19.1551
rtoes -11.9955
lfemur -31.3997 7.88945 -12.6968
ltibia 96.1499
lfoot -4.64517 -6.62875
ltoes -25.025
